<svg xmlns="http://www.w3.org/2000/svg" viewBox="0 0 512 512" role="img" aria-labelledby="title desc">
  <title id="title">CoreChain monochrome symbol</title>
  <desc id="desc">One-color CoreChain symbol with the mineral seam rendered as negative space.</desc>
  <defs>
    <mask id="seam-cutout">
      <rect width="512" height="512" fill="black"/>
      <g fill="white">
        <path d="M176 72h280v88H190c-57 0-86 36-86 96s29 96 86 96h266v88H176C74 440 32 366 32 256S74 72 176 72Z"/>
        <path d="M176 192h104v128H176c-39 0-56-25-56-64s17-64 56-64Z"/>
        <path d="M304 192h88c40 0 56 25 56 64s-16 64-56 64h-88V192Z"/>
      </g>
      <path d="M140 235c50 2 82 13 121 28 42 16 70 9 105 25 25 11 47 13 66 13" fill="none" stroke="black" stroke-width="11" stroke-linecap="round" stroke-linejoin="round"/>
    </mask>
  </defs>
  <rect width="512" height="512" fill="#182321" mask="url(#seam-cutout)"/>
</svg>
